<?xml version="1.0" encoding="UTF-8" standalone="no"?>
<!-- Created with Inkscape (http://www.inkscape.org/) -->

<svg
   xmlns:dc="http://purl.org/dc/elements/1.1/"
   xmlns:cc="http://creativecommons.org/ns#"
   xmlns:rdf="http://www.w3.org/1999/02/22-rdf-syntax-ns#"
   xmlns:svg="http://www.w3.org/2000/svg"
   xmlns="http://www.w3.org/2000/svg"
   xmlns:sodipodi="http://sodipodi.sourceforge.net/DTD/sodipodi-0.dtd"
   xmlns:inkscape="http://www.inkscape.org/namespaces/inkscape"
   width="42"
   height="42"
   viewBox="0 0 11.1125 11.1125"
   version="1.1"
   id="svg88"
   inkscape:version="0.92.5 (2060ec1f9f, 2020-04-08)"
   sodipodi:docname="d20-small.svg">
  <defs
     id="defs82" />
  <sodipodi:namedview
     id="base"
     pagecolor="#ffffff"
     bordercolor="#666666"
     borderopacity="1.0"
     inkscape:pageopacity="0.0"
     inkscape:pageshadow="2"
     inkscape:zoom="1"
     inkscape:cx="107.14286"
     inkscape:cy="200"
     inkscape:document-units="mm"
     inkscape:current-layer="layer1"
     showgrid="false"
     units="px"
     inkscape:window-width="1366"
     inkscape:window-height="717"
     inkscape:window-x="0"
     inkscape:window-y="25"
     inkscape:window-maximized="1" />
  <metadata
     id="metadata85">
    <rdf:RDF>
      <cc:Work
         rdf:about="">
        <dc:format>image/svg+xml</dc:format>
        <dc:type
           rdf:resource="http://purl.org/dc/dcmitype/StillImage" />
        <dc:title></dc:title>
      </cc:Work>
    </rdf:RDF>
  </metadata>
  <g
     inkscape:label="Camada 1"
     inkscape:groupmode="layer"
     id="layer1"
     transform="translate(0,-285.88748)">
    <g
       transform="matrix(0.12347085,0,0,0.12347085,-0.30342666,167.68146)"
       id="g62">
      <path
         inkscape:connector-curvature="0"
         d="m 50,957.36 -38.971,22.5 v 45.001 l 1.2906,0.7457 37.681,21.754 38.971,-22.5 v -45.001 l -38.971,-22.5 z m 0,7.5949 15.566,23.025 H 34.434 Z m -8.4251,3.2361 -12.799,18.932 -9.9958,-5.7706 22.795,-13.161 z m 16.851,0 22.794,13.16 -9.9945,5.7706 -12.799,-18.93 z m -42.23,17.635 9.997,5.7707 -9.997,20.552 v -26.322 z m 67.608,0 v 26.324 l -9.9971,-20.553 9.9958,-5.7707 z m -49.759,7.32 h 31.911 l -15.956,27.637 -15.956,-27.637 z m -4.2806,2.9219 15.567,26.961 -27.723,-1.9681 12.156,-24.993 z m 40.473,0 12.157,24.993 -27.723,1.9681 15.566,-26.961 z m -45.618,30.671 22.797,1.6199 v 11.543 l -22.797,-13.162 z m 50.764,0 -22.799,13.162 v -11.543 l 22.799,-1.6199 z"
         style="color:#000000;text-indent:0;text-decoration:none;text-decoration-line:none;text-decoration-style:solid;text-decoration-color:#000000;text-transform:none;white-space:normal;isolation:auto;mix-blend-mode:normal;solid-color:#000000;color-rendering:auto;image-rendering:auto;shape-rendering:auto"
         id="path60" />
    </g>
  </g>
</svg>
